<?xml version="1.0" encoding="UTF-8" standalone="no"?>
<svg
   xmlns:dc="http://purl.org/dc/elements/1.1/"
   xmlns:cc="http://creativecommons.org/ns#"
   xmlns:rdf="http://www.w3.org/1999/02/22-rdf-syntax-ns#"
   xmlns:svg="http://www.w3.org/2000/svg"
   xmlns="http://www.w3.org/2000/svg"
   xmlns:sodipodi="http://sodipodi.sourceforge.net/DTD/sodipodi-0.dtd"
   xmlns:inkscape="http://www.inkscape.org/namespaces/inkscape"
   id="Layer_1"
   version="1.1"
   viewBox="0 0 128 128"
   xml:space="preserve"
   sodipodi:docname="logo-blue.svg"
   inkscape:version="1.0.2-2 (e86c870879, 2021-01-15)"
   width="128"
   height="128"
   inkscape:export-filename="C:\Users\Jacob\Projects\IncognitoInsights\src\assets\icon\favicon.png"
   inkscape:export-xdpi="48"
   inkscape:export-ydpi="48"><metadata
     id="metadata54"><rdf:RDF><cc:Work
         rdf:about=""><dc:format>image/svg+xml</dc:format><dc:type
           rdf:resource="http://purl.org/dc/dcmitype/StillImage" /><dc:title /></cc:Work></rdf:RDF></metadata><defs
     id="defs52" /><sodipodi:namedview
     pagecolor="#ffffff"
     bordercolor="#666666"
     borderopacity="1"
     objecttolerance="10"
     gridtolerance="10"
     guidetolerance="10"
     inkscape:pageopacity="0"
     inkscape:pageshadow="2"
     inkscape:window-width="1366"
     inkscape:window-height="697"
     id="namedview50"
     showgrid="false"
     inkscape:zoom="2.7973287"
     inkscape:cx="57.199318"
     inkscape:cy="82.824993"
     inkscape:window-x="1912"
     inkscape:window-y="305"
     inkscape:window-maximized="1"
     inkscape:current-layer="g47"
     inkscape:document-rotation="0" /><style
     type="text/css"
     id="style33">
	.st0{fill:#B4E6DD;}
	.st1{fill:#80D4C4;}
	.st2{fill:#D2F0EA;}
	.st3{fill:#FFFFFF;}
	.st4{fill:#FBD872;}
	.st5{fill:#DB7767;}
	.st6{fill:#F38E7A;}
	.st7{fill:#F6AF62;}
	.st8{fill:#32A48E;}
	.st9{fill:#A38FD8;}
	.st10{fill:#7C64BD;}
	.st11{fill:#EAA157;}
	.st12{fill:#9681CF;}
	.st13{fill:#F9C46A;}
	.st14{fill:#CE6B61;}
</style><g
     id="g47"
     transform="matrix(2.6666667,0,0,2.6666667,-21.333334,-23.013333)"><ellipse
       class="st5"
       cx="32"
       cy="31.391127"
       rx="24"
       ry="6.2199998"
       id="ellipse35"
       style="fill:#428cff;fill-opacity:1" /><path
       class="st6"
       d="M 40.73,14.312741 C 40.46,13.196217 39.22,12.38 37.78,12.38 c 0,0 0,0 0,0 -0.79,0 -1.56,0.254105 -2.12,0.716115 -0.51,0.423509 -1.03,0.839318 -1.55,1.262826 -1.17,0.962521 -3.07,0.962521 -4.24,0 C 29.35,13.935433 28.84,13.511924 28.32,13.096115 27.76,12.634105 27,12.38 26.2,12.38 c -1.44,0 -2.67,0.816217 -2.95,1.932741 -1.48,6.060028 -2.96,10.279717 -4.41,15.885436 8.64,1.593933 17.64,1.593933 26.28,0 -1.43,-5.605719 -2.91,-9.825408 -4.39,-15.885436 z"
       id="path37"
       style="fill:#428cff;fill-opacity:1;stroke-width:0.877506" /><g
       id="g41"
       style="fill:#428cff;fill-opacity:1"
       transform="translate(0,-1.9288733)"><path
         class="st10"
         d="m 36.11,49.75 c -2.27,-2.27 -5.96,-2.27 -8.23,0 l -1.66,-1.66 c 3.18,-3.18 8.36,-3.18 11.54,0 z"
         id="path39"
         style="fill:#428cff;fill-opacity:1" /></g><circle
       class="st9"
       cx="23.51"
       cy="46.991123"
       r="6.4499998"
       id="circle43"
       style="fill:#428cff;fill-opacity:1" /><circle
       class="st9"
       cx="40.490002"
       cy="46.991123"
       r="6.4499998"
       id="circle45"
       style="fill:#428cff;fill-opacity:1" /></g></svg>
